<svg version="1.1" id="Layer_1" xmlns="http://www.w3.org/2000/svg" xmlns:xlink="http://www.w3.org/1999/xlink" x="0px" y="0px"
	 width="100%" viewBox="0 0 120 98" enable-background="new 0 0 120 98" xml:space="preserve">
<path fill="#FCFBFB" opacity="1.000000" stroke="none" 
	d="
M73.000000,99.000000 
	C48.666668,99.000000 24.833334,99.000000 1.000000,99.000000 
	C1.000000,66.333336 1.000000,33.666668 1.000000,1.000000 
	C41.000000,1.000000 81.000000,1.000000 121.000000,1.000000 
	C121.000000,33.666668 121.000000,66.333336 121.000000,99.000000 
	C105.166664,99.000000 89.333336,99.000000 73.000000,99.000000 
M5.994357,50.463928 
	C5.994357,51.919521 5.994357,53.375114 5.994357,54.757088 
	C13.223351,55.887135 15.666094,58.479652 16.208668,65.197456 
	C16.543329,69.341011 16.673012,73.512245 17.238464,77.623787 
	C18.537783,87.071442 26.582340,93.571777 35.772514,92.552979 
	C35.772514,90.784180 35.942406,88.950371 35.716553,87.166679 
	C35.548313,85.837997 35.089443,83.591438 34.381771,83.431938 
	C26.440639,81.642250 26.300112,75.466202 26.326727,69.362701 
	C26.358818,62.003746 24.909359,55.194195 20.732872,50.193039 
	C22.285971,46.030182 23.981781,42.624119 24.783653,39.019211 
	C25.606779,35.318745 25.564955,31.424675 25.886076,27.614019 
	C26.413601,21.353970 28.321056,16.196875 35.532597,15.760178 
	C35.532597,12.549365 35.532597,9.782085 35.532597,7.049493 
	C26.836054,6.381397 20.041088,10.763165 18.079746,18.724596 
	C16.974024,23.212925 16.629791,27.904203 16.136370,32.524757 
	C15.173924,41.537426 13.763563,43.475815 5.994325,45.653133 
	C5.994325,46.919640 5.994325,48.241127 5.994357,50.463928 
M96.296204,73.280876 
	C96.296593,78.094131 94.572632,81.605965 89.555367,83.107117 
	C88.552368,83.407204 87.465111,84.996498 87.281761,86.131134 
	C86.923775,88.346405 87.176727,90.660400 87.176727,92.939789 
	C97.430641,92.662506 103.999435,87.322319 105.464310,78.169220 
	C106.093422,74.238289 106.121727,70.213287 106.475243,66.235672 
	C107.000816,60.322300 108.894928,55.458645 115.846512,54.774628 
	C115.846512,51.538273 115.846512,48.556458 115.846512,45.106487 
	C109.501953,44.776272 107.945656,40.224213 107.251854,34.927620 
	C106.581604,29.810829 106.040833,24.663755 105.062119,19.603687 
	C103.421028,11.119035 96.305328,6.180909 87.477295,7.142591 
	C87.477295,10.030573 87.477295,12.917610 87.477295,16.094666 
	C93.538712,15.739390 95.560928,19.718815 96.636230,24.361574 
	C97.230629,26.927952 97.126602,29.652403 97.385757,32.300865 
	C97.982529,38.399597 98.290588,44.597881 103.223465,49.344940 
	C96.587494,55.897923 96.944611,64.280235 96.296204,73.280876 
M55.576591,11.610038 
	C57.406647,11.611125 59.236835,11.598411 61.066738,11.615793 
	C67.495995,11.676867 68.370506,12.514174 68.406303,18.752016 
	C68.433990,23.576639 68.672165,28.419901 68.333023,33.220703 
	C68.044556,37.304062 69.461296,40.183617 72.565903,42.673454 
	C75.387657,44.936447 77.932961,47.544151 81.529106,50.855228 
	C68.642494,57.628025 66.470451,68.602066 67.642105,81.306831 
	C68.207672,87.439590 66.152710,88.906227 60.020447,88.962509 
	C56.082085,88.998657 52.143124,88.969292 48.163017,88.969292 
	C48.163017,91.511841 48.163017,93.416428 48.163017,95.772087 
	C52.760185,95.772087 57.055290,95.781075 61.350349,95.770210 
	C70.179756,95.747871 75.356125,91.238747 74.855721,82.346687 
	C74.264343,71.838112 75.601044,62.645313 85.225555,56.481731 
	C85.362183,56.394234 85.469208,56.255135 85.577240,56.129135 
	C89.241928,51.855499 89.234375,48.798641 85.388123,44.790607 
	C83.432213,42.752438 81.420609,40.736126 79.228348,38.964649 
	C76.692757,36.915741 75.629669,34.557392 75.823257,31.229683 
	C76.102959,26.421675 76.062370,21.575996 75.832771,16.761925 
	C75.500847,9.802446 71.911522,5.127562 65.695625,4.506844 
	C59.977329,3.935816 54.157116,4.385447 48.275738,4.385447 
	C48.275738,6.870623 48.275738,9.050727 48.275738,11.609518 
	C50.673824,11.609518 52.648788,11.609518 55.576591,11.610038 
M46.482140,27.926834 
	C46.933575,32.958862 49.468174,35.745506 52.900391,34.261585 
	C54.802025,33.439419 56.918259,30.984255 57.135654,29.061411 
	C57.313488,27.488535 55.176914,24.878014 53.434589,24.038067 
	C50.505848,22.626160 48.025372,24.181686 46.482140,27.926834 
z"/>
<path fill="#0F0F0F" opacity="1.000000" stroke="none" 
	d="
M5.994341,50.013268 
	C5.994325,48.241127 5.994325,46.919640 5.994325,45.653133 
	C13.763563,43.475815 15.173924,41.537426 16.136370,32.524757 
	C16.629791,27.904203 16.974024,23.212925 18.079746,18.724596 
	C20.041088,10.763165 26.836054,6.381397 35.532597,7.049493 
	C35.532597,9.782085 35.532597,12.549365 35.532597,15.760178 
	C28.321056,16.196875 26.413601,21.353970 25.886076,27.614019 
	C25.564955,31.424675 25.606779,35.318745 24.783653,39.019211 
	C23.981781,42.624119 22.285971,46.030182 20.732872,50.193039 
	C24.909359,55.194195 26.358818,62.003746 26.326727,69.362701 
	C26.300112,75.466202 26.440639,81.642250 34.381771,83.431938 
	C35.089443,83.591438 35.548313,85.837997 35.716553,87.166679 
	C35.942406,88.950371 35.772514,90.784180 35.772514,92.552979 
	C26.582340,93.571777 18.537783,87.071442 17.238464,77.623787 
	C16.673012,73.512245 16.543329,69.341011 16.208668,65.197456 
	C15.666094,58.479652 13.223351,55.887135 5.994357,54.757088 
	C5.994357,53.375114 5.994357,51.919521 5.994341,50.013268 
z"/>
<path fill="#0F0F0F" opacity="1.000000" stroke="none" 
	d="
M96.318512,72.834808 
	C96.944611,64.280235 96.587494,55.897923 103.223465,49.344940 
	C98.290588,44.597881 97.982529,38.399597 97.385757,32.300865 
	C97.126602,29.652403 97.230629,26.927952 96.636230,24.361574 
	C95.560928,19.718815 93.538712,15.739390 87.477295,16.094666 
	C87.477295,12.917610 87.477295,10.030573 87.477295,7.142591 
	C96.305328,6.180909 103.421028,11.119035 105.062119,19.603687 
	C106.040833,24.663755 106.581604,29.810829 107.251854,34.927620 
	C107.945656,40.224213 109.501953,44.776272 115.846512,45.106487 
	C115.846512,48.556458 115.846512,51.538273 115.846512,54.774628 
	C108.894928,55.458645 107.000816,60.322300 106.475243,66.235672 
	C106.121727,70.213287 106.093422,74.238289 105.464310,78.169220 
	C103.999435,87.322319 97.430641,92.662506 87.176727,92.939789 
	C87.176727,90.660400 86.923775,88.346405 87.281761,86.131134 
	C87.465111,84.996498 88.552368,83.407204 89.555367,83.107117 
	C94.572632,81.605965 96.296593,78.094131 96.318512,72.834808 
z"/>
<path fill="#C54942" opacity="1.000000" stroke="none" 
	d="
M55.100174,11.609777 
	C52.648788,11.609518 50.673824,11.609518 48.275738,11.609518 
	C48.275738,9.050727 48.275738,6.870623 48.275738,4.385447 
	C54.157116,4.385447 59.977329,3.935816 65.695625,4.506844 
	C71.911522,5.127562 75.500847,9.802446 75.832771,16.761925 
	C76.062370,21.575996 76.102959,26.421675 75.823257,31.229683 
	C75.629669,34.557392 76.692757,36.915741 79.228348,38.964649 
	C81.420609,40.736126 83.432213,42.752438 85.388123,44.790607 
	C89.234375,48.798641 89.241928,51.855499 85.577240,56.129135 
	C85.469208,56.255135 85.362183,56.394234 85.225555,56.481731 
	C75.601044,62.645313 74.264343,71.838112 74.855721,82.346687 
	C75.356125,91.238747 70.179756,95.747871 61.350349,95.770210 
	C57.055290,95.781075 52.760185,95.772087 48.163017,95.772087 
	C48.163017,93.416428 48.163017,91.511841 48.163017,88.969292 
	C52.143124,88.969292 56.082085,88.998657 60.020447,88.962509 
	C66.152710,88.906227 68.207672,87.439590 67.642105,81.306831 
	C66.470451,68.602066 68.642494,57.628025 81.529106,50.855228 
	C77.932961,47.544151 75.387657,44.936447 72.565903,42.673454 
	C69.461296,40.183617 68.044556,37.304062 68.333023,33.220703 
	C68.672165,28.419901 68.433990,23.576639 68.406303,18.752016 
	C68.370506,12.514174 67.495995,11.676867 61.066738,11.615793 
	C59.236835,11.598411 57.406647,11.611125 55.100174,11.609777 
z"/>
<path fill="#C74E47" opacity="1.000000" stroke="none" 
	d="
M46.594635,27.577843 
	C48.025372,24.181686 50.505848,22.626160 53.434589,24.038067 
	C55.176914,24.878014 57.313488,27.488535 57.135654,29.061411 
	C56.918259,30.984255 54.802025,33.439419 52.900391,34.261585 
	C49.468174,35.745506 46.933575,32.958862 46.594635,27.577843 
z"/>
</svg>