<svg version="1.1" id="Layer_1" xmlns="http://www.w3.org/2000/svg" xmlns:xlink="http://www.w3.org/1999/xlink" x="0px" y="0px"
	 width="100%" viewBox="0 0 800 673" enable-background="new 0 0 800 673" xml:space="preserve">
<path fill="#FFFFFF" opacity="1.000000" stroke="none" 
	d="
M467.000000,674.000000 
	C311.333344,674.000000 156.166672,674.000000 1.000000,674.000000 
	C1.000000,449.666656 1.000000,225.333328 1.000000,1.000000 
	C267.666656,1.000000 534.333313,1.000000 801.000000,1.000000 
	C801.000000,225.333328 801.000000,449.666656 801.000000,674.000000 
	C689.833313,674.000000 578.666687,674.000000 467.000000,674.000000 
M408.055542,625.502808 
	C411.379486,623.597290 414.778992,621.811523 418.015930,619.768188 
	C463.762726,590.890503 488.920044,549.619019 492.010376,495.461884 
	C492.910980,479.678650 492.034485,463.800049 492.693756,447.995209 
	C493.261292,434.388916 493.969727,420.678162 496.197266,407.276428 
	C499.804871,385.571747 510.625092,368.132935 530.208008,356.857819 
	C543.011963,349.485779 556.988953,346.012970 571.434631,343.923431 
	C574.054443,343.544464 576.830505,343.217682 579.136414,342.068298 
	C580.606079,341.335754 582.180481,339.136597 582.188721,337.587036 
	C582.198242,335.779663 580.965027,333.440765 579.512268,332.292694 
	C577.941956,331.051788 575.499146,330.907074 573.430481,330.306244 
	C566.244263,328.219025 558.859619,326.649048 551.903259,323.967133 
	C528.783936,315.053833 512.749817,299.082642 507.597473,274.466492 
	C504.961578,261.873077 504.329865,248.734268 503.994598,235.810776 
	C503.238922,206.680984 503.838287,177.482773 497.953308,148.728455 
	C492.594421,122.544563 482.673981,98.515289 464.605194,78.296440 
	C442.860718,53.964523 415.311310,39.636528 384.261627,31.293377 
	C367.922363,26.902973 351.250000,24.917221 334.337555,24.959339 
	C331.272034,24.966974 327.914490,25.067633 327.145203,28.842171 
	C326.355774,32.715748 328.783417,35.052094 332.114899,36.519623 
	C333.333191,37.056301 334.654266,37.376244 335.835724,37.977318 
	C344.137360,42.200886 352.792755,45.874859 360.631561,50.836056 
	C388.035400,68.179977 404.581238,93.796135 415.017609,123.906662 
	C425.569031,154.348969 428.764893,186.172150 433.138733,217.807739 
	C435.549957,235.248001 437.934875,252.788849 442.023163,269.879730 
	C450.085754,303.585144 471.194244,325.616821 504.673706,335.438538 
	C506.021942,335.834045 507.319702,336.401672 508.696808,336.909668 
	C508.408997,337.433472 508.367920,337.632416 508.272125,337.663727 
	C507.011932,338.075043 505.758575,338.519318 504.476013,338.848145 
	C462.334991,349.652039 436.779694,376.487122 426.773651,418.673798 
	C421.346741,441.554199 421.073181,464.814178 420.077789,488.114014 
	C419.291504,506.517944 418.065063,525.094727 414.695557,543.158508 
	C406.465179,587.281189 381.359955,617.528381 337.608490,630.720215 
	C327.906342,633.645447 317.897766,635.559387 308.019470,637.893127 
	C304.277802,638.777100 301.964203,640.887146 302.455475,644.886230 
	C302.932495,648.769653 305.947327,649.202454 309.190796,649.192810 
	C343.758057,649.089478 376.640106,641.918091 408.055542,625.502808 
M195.557632,594.163696 
	C179.827805,589.667175 171.583817,578.211609 167.048279,563.375061 
	C163.407043,551.463989 162.808151,539.205688 162.772125,526.837341 
	C162.656631,487.190552 163.042130,447.525299 161.932098,407.903656 
	C160.986832,374.163116 138.526413,346.816681 106.166191,337.147308 
	C105.135788,336.839417 104.182365,336.273895 102.353554,335.450531 
	C104.640259,334.728149 106.038429,334.287415 107.436020,333.844818 
	C121.075157,329.525574 132.844116,322.279877 142.313477,311.471436 
	C156.721527,295.025970 162.791306,275.587616 162.802628,254.010956 
	C162.821793,217.519012 162.666092,181.026093 162.913269,144.535812 
	C162.976105,135.260300 163.588348,125.875565 165.142578,116.744324 
	C169.768631,89.566010 185.293488,76.450409 212.743256,75.764603 
	C219.071609,75.606499 225.407837,75.589973 231.736786,75.706444 
	C234.666031,75.760345 235.908386,74.883698 235.866928,71.731659 
	C235.720078,60.569389 235.726593,49.403008 235.861862,38.240444 
	C235.900330,35.066380 234.565521,34.242363 231.669327,34.303715 
	C214.521515,34.666996 197.296707,34.016521 180.238541,35.418972 
	C149.295685,37.962971 127.195633,53.289639 116.297783,83.219017 
	C110.858208,98.158051 109.409279,113.694016 109.329605,129.370544 
	C109.145844,165.528305 109.340637,201.687866 109.212845,237.846115 
	C109.185837,245.486786 108.806648,253.166687 107.952415,260.756775 
	C104.784996,288.899994 88.926605,306.784058 61.535606,313.195526 
	C56.050495,314.479431 50.334782,314.762878 44.821655,315.953369 
	C43.465252,316.246277 41.516636,318.267242 41.486774,319.532623 
	C41.223454,330.690643 41.224365,341.859924 41.481735,353.018158 
	C41.510468,354.263641 43.449306,356.231476 44.799652,356.533051 
	C48.511490,357.362061 52.419781,357.263641 56.182468,357.920807 
	C74.514236,361.122375 90.146240,368.773529 99.715889,385.641663 
	C106.267197,397.189423 108.897919,409.944458 109.001961,423.037109 
	C109.303833,461.026154 108.993484,499.020660 109.395515,537.007996 
	C109.523598,549.111084 110.076073,561.393188 112.264252,573.255737 
	C118.197632,605.422180 138.281097,631.029297 172.942032,635.643860 
	C193.262146,638.349243 214.099045,637.174561 234.704269,637.714844 
	C234.945282,637.721191 235.196915,637.321960 235.395050,637.153259 
	C235.395050,623.873901 235.395050,610.646362 235.395050,598.279236 
	C222.041107,596.949707 209.187317,595.669983 195.557632,594.163696 
M746.690063,315.025574 
	C744.715027,314.730530 742.725403,314.510284 740.767212,314.129028 
	C720.081238,310.101501 703.773315,300.178345 695.475647,279.865448 
	C690.825989,268.483002 689.055420,256.470886 689.029541,244.238495 
	C688.948242,205.747223 688.945496,167.255661 689.002441,128.764328 
	C689.022461,115.213966 687.821045,101.819969 683.922791,88.816422 
	C675.644775,61.203232 658.256592,42.950630 629.378967,37.104343 
	C608.130188,32.802521 586.579407,34.564720 565.127991,34.536835 
	C564.848206,34.536472 564.568054,34.864716 563.858398,35.307983 
	C563.858398,41.679638 563.858398,48.325039 563.858398,54.970440 
	C563.858398,61.724861 563.858398,68.479286 563.858398,75.781250 
	C572.089294,75.781250 579.562927,75.612473 587.026611,75.812073 
	C612.041992,76.481033 627.583740,88.561272 632.847107,112.885323 
	C635.181396,123.672729 635.927795,134.956146 636.090637,146.033585 
	C636.673218,185.675140 636.047119,225.343414 637.176636,264.964569 
	C637.853943,288.723206 649.026123,308.209747 668.464111,322.024353 
	C676.604980,327.810150 686.160461,331.605621 694.716003,336.117767 
	C694.604858,336.164612 693.612915,336.706940 692.552673,337.011230 
	C669.874146,343.519135 653.801453,357.633514 643.912170,378.987671 
	C638.042908,391.661346 636.337036,405.142365 636.276184,418.858002 
	C636.103149,457.848419 636.191284,496.839935 636.089172,535.830811 
	C636.060242,546.898254 634.110168,557.656677 630.196350,568.050415 
	C624.875793,582.179871 615.137085,591.639160 600.329041,594.825073 
	C592.922852,596.418457 585.170837,596.500183 577.557800,597.000244 
	C573.145813,597.290039 568.699219,597.052917 564.215332,597.052917 
	C564.215332,611.046631 564.215332,624.281189 564.215332,637.048157 
	C582.846985,637.048157 601.200867,638.158508 619.366821,636.784058 
	C645.634583,634.796570 665.388550,621.506042 677.721497,597.865295 
	C686.336975,581.350464 688.903259,563.509460 688.948364,545.191895 
	C689.039490,508.200348 688.849854,471.207642 689.076599,434.217255 
	C689.131470,425.270966 689.613403,416.198242 691.191345,407.415894 
	C695.061462,385.875580 705.825500,369.163055 727.485474,361.801025 
	C734.970947,359.256775 742.972229,358.000702 750.841187,356.883575 
	C757.654480,355.916290 757.719666,356.371307 757.720398,349.293304 
	C757.721130,341.461700 757.720581,333.630127 757.720581,325.798523 
	C757.720581,315.732941 757.720581,315.732941 746.690063,315.025574 
M392.677490,165.775513 
	C370.493530,151.279465 344.104950,163.094345 339.302094,189.673111 
	C336.360474,205.951996 344.254456,222.348236 358.251892,229.032761 
	C372.048462,235.621368 388.756653,232.305252 398.363434,221.071732 
	C412.136902,204.965927 409.801544,179.861679 392.677490,165.775513 
z"/>
<path fill="#D84937" opacity="1.000000" stroke="none" 
	d="
M407.736511,625.685608 
	C376.640106,641.918091 343.758057,649.089478 309.190796,649.192810 
	C305.947327,649.202454 302.932495,648.769653 302.455475,644.886230 
	C301.964203,640.887146 304.277802,638.777100 308.019470,637.893127 
	C317.897766,635.559387 327.906342,633.645447 337.608490,630.720215 
	C381.359955,617.528381 406.465179,587.281189 414.695557,543.158508 
	C418.065063,525.094727 419.291504,506.517944 420.077789,488.114014 
	C421.073181,464.814178 421.346741,441.554199 426.773651,418.673798 
	C436.779694,376.487122 462.334991,349.652039 504.476013,338.848145 
	C505.758575,338.519318 507.011932,338.075043 508.272125,337.663727 
	C508.367920,337.632416 508.408997,337.433472 508.696808,336.909668 
	C507.319702,336.401672 506.021942,335.834045 504.673706,335.438538 
	C471.194244,325.616821 450.085754,303.585144 442.023163,269.879730 
	C437.934875,252.788849 435.549957,235.248001 433.138733,217.807739 
	C428.764893,186.172150 425.569031,154.348969 415.017609,123.906662 
	C404.581238,93.796135 388.035400,68.179977 360.631561,50.836056 
	C352.792755,45.874859 344.137360,42.200886 335.835724,37.977318 
	C334.654266,37.376244 333.333191,37.056301 332.114899,36.519623 
	C328.783417,35.052094 326.355774,32.715748 327.145203,28.842171 
	C327.914490,25.067633 331.272034,24.966974 334.337555,24.959339 
	C351.250000,24.917221 367.922363,26.902973 384.261627,31.293377 
	C415.311310,39.636528 442.860718,53.964523 464.605194,78.296440 
	C482.673981,98.515289 492.594421,122.544563 497.953308,148.728455 
	C503.838287,177.482773 503.238922,206.680984 503.994598,235.810776 
	C504.329865,248.734268 504.961578,261.873077 507.597473,274.466492 
	C512.749817,299.082642 528.783936,315.053833 551.903259,323.967133 
	C558.859619,326.649048 566.244263,328.219025 573.430481,330.306244 
	C575.499146,330.907074 577.941956,331.051788 579.512268,332.292694 
	C580.965027,333.440765 582.198242,335.779663 582.188721,337.587036 
	C582.180481,339.136597 580.606079,341.335754 579.136414,342.068298 
	C576.830505,343.217682 574.054443,343.544464 571.434631,343.923431 
	C556.988953,346.012970 543.011963,349.485779 530.208008,356.857819 
	C510.625092,368.132935 499.804871,385.571747 496.197266,407.276428 
	C493.969727,420.678162 493.261292,434.388916 492.693756,447.995209 
	C492.034485,463.800049 492.910980,479.678650 492.010376,495.461884 
	C488.920044,549.619019 463.762726,590.890503 418.015930,619.768188 
	C414.778992,621.811523 411.379486,623.597290 407.736511,625.685608 
z"/>
<path fill="#B4D749" opacity="1.000000" stroke="none" 
	d="
M195.945587,594.276978 
	C209.187317,595.669983 222.041107,596.949707 235.395050,598.279236 
	C235.395050,610.646362 235.395050,623.873901 235.395050,637.153259 
	C235.196915,637.321960 234.945282,637.721191 234.704269,637.714844 
	C214.099045,637.174561 193.262146,638.349243 172.942032,635.643860 
	C138.281097,631.029297 118.197632,605.422180 112.264252,573.255737 
	C110.076073,561.393188 109.523598,549.111084 109.395515,537.007996 
	C108.993484,499.020660 109.303833,461.026154 109.001961,423.037109 
	C108.897919,409.944458 106.267197,397.189423 99.715889,385.641663 
	C90.146240,368.773529 74.514236,361.122375 56.182468,357.920807 
	C52.419781,357.263641 48.511490,357.362061 44.799652,356.533051 
	C43.449306,356.231476 41.510468,354.263641 41.481735,353.018158 
	C41.224365,341.859924 41.223454,330.690643 41.486774,319.532623 
	C41.516636,318.267242 43.465252,316.246277 44.821655,315.953369 
	C50.334782,314.762878 56.050495,314.479431 61.535606,313.195526 
	C88.926605,306.784058 104.784996,288.899994 107.952415,260.756775 
	C108.806648,253.166687 109.185837,245.486786 109.212845,237.846115 
	C109.340637,201.687866 109.145844,165.528305 109.329605,129.370544 
	C109.409279,113.694016 110.858208,98.158051 116.297783,83.219017 
	C127.195633,53.289639 149.295685,37.962971 180.238541,35.418972 
	C197.296707,34.016521 214.521515,34.666996 231.669327,34.303715 
	C234.565521,34.242363 235.900330,35.066380 235.861862,38.240444 
	C235.726593,49.403008 235.720078,60.569389 235.866928,71.731659 
	C235.908386,74.883698 234.666031,75.760345 231.736786,75.706444 
	C225.407837,75.589973 219.071609,75.606499 212.743256,75.764603 
	C185.293488,76.450409 169.768631,89.566010 165.142578,116.744324 
	C163.588348,125.875565 162.976105,135.260300 162.913269,144.535812 
	C162.666092,181.026093 162.821793,217.519012 162.802628,254.010956 
	C162.791306,275.587616 156.721527,295.025970 142.313477,311.471436 
	C132.844116,322.279877 121.075157,329.525574 107.436020,333.844818 
	C106.038429,334.287415 104.640259,334.728149 102.353554,335.450531 
	C104.182365,336.273895 105.135788,336.839417 106.166191,337.147308 
	C138.526413,346.816681 160.986832,374.163116 161.932098,407.903656 
	C163.042130,447.525299 162.656631,487.190552 162.772125,526.837341 
	C162.808151,539.205688 163.407043,551.463989 167.048279,563.375061 
	C171.583817,578.211609 179.827805,589.667175 195.945587,594.276978 
z"/>
<path fill="#B4D748" opacity="1.000000" stroke="none" 
	d="
M747.132324,315.064758 
	C757.720581,315.732941 757.720581,315.732941 757.720581,325.798523 
	C757.720581,333.630127 757.721130,341.461700 757.720398,349.293304 
	C757.719666,356.371307 757.654480,355.916290 750.841187,356.883575 
	C742.972229,358.000702 734.970947,359.256775 727.485474,361.801025 
	C705.825500,369.163055 695.061462,385.875580 691.191345,407.415894 
	C689.613403,416.198242 689.131470,425.270966 689.076599,434.217255 
	C688.849854,471.207642 689.039490,508.200348 688.948364,545.191895 
	C688.903259,563.509460 686.336975,581.350464 677.721497,597.865295 
	C665.388550,621.506042 645.634583,634.796570 619.366821,636.784058 
	C601.200867,638.158508 582.846985,637.048157 564.215332,637.048157 
	C564.215332,624.281189 564.215332,611.046631 564.215332,597.052917 
	C568.699219,597.052917 573.145813,597.290039 577.557800,597.000244 
	C585.170837,596.500183 592.922852,596.418457 600.329041,594.825073 
	C615.137085,591.639160 624.875793,582.179871 630.196350,568.050415 
	C634.110168,557.656677 636.060242,546.898254 636.089172,535.830811 
	C636.191284,496.839935 636.103149,457.848419 636.276184,418.858002 
	C636.337036,405.142365 638.042908,391.661346 643.912170,378.987671 
	C653.801453,357.633514 669.874146,343.519135 692.552673,337.011230 
	C693.612915,336.706940 694.604858,336.164612 694.716003,336.117767 
	C686.160461,331.605621 676.604980,327.810150 668.464111,322.024353 
	C649.026123,308.209747 637.853943,288.723206 637.176636,264.964569 
	C636.047119,225.343414 636.673218,185.675140 636.090637,146.033585 
	C635.927795,134.956146 635.181396,123.672729 632.847107,112.885323 
	C627.583740,88.561272 612.041992,76.481033 587.026611,75.812073 
	C579.562927,75.612473 572.089294,75.781250 563.858398,75.781250 
	C563.858398,68.479286 563.858398,61.724861 563.858398,54.970440 
	C563.858398,48.325039 563.858398,41.679638 563.858398,35.307983 
	C564.568054,34.864716 564.848206,34.536472 565.127991,34.536835 
	C586.579407,34.564720 608.130188,32.802521 629.378967,37.104343 
	C658.256592,42.950630 675.644775,61.203232 683.922791,88.816422 
	C687.821045,101.819969 689.022461,115.213966 689.002441,128.764328 
	C688.945496,167.255661 688.948242,205.747223 689.029541,244.238495 
	C689.055420,256.470886 690.825989,268.483002 695.475647,279.865448 
	C703.773315,300.178345 720.081238,310.101501 740.767212,314.129028 
	C742.725403,314.510284 744.715027,314.730530 747.132324,315.064758 
z"/>
<path fill="#D84A37" opacity="1.000000" stroke="none" 
	d="
M392.968140,165.986908 
	C409.801544,179.861679 412.136902,204.965927 398.363434,221.071732 
	C388.756653,232.305252 372.048462,235.621368 358.251892,229.032761 
	C344.254456,222.348236 336.360474,205.951996 339.302094,189.673111 
	C344.104950,163.094345 370.493530,151.279465 392.968140,165.986908 
z"/>
</svg>